<?xml version="1.0" encoding="UTF-8" standalone="no"?>
<!-- Created with Inkscape (http://www.inkscape.org/) -->

<svg
   xmlns:dc="http://purl.org/dc/elements/1.1/"
   xmlns:cc="http://creativecommons.org/ns#"
   xmlns:rdf="http://www.w3.org/1999/02/22-rdf-syntax-ns#"
   xmlns:svg="http://www.w3.org/2000/svg"
   xmlns="http://www.w3.org/2000/svg"
   xmlns:sodipodi="http://sodipodi.sourceforge.net/DTD/sodipodi-0.dtd"
   xmlns:inkscape="http://www.inkscape.org/namespaces/inkscape"
   width="128"
   height="128"
   viewBox="0 0 33.866666 33.866668"
   version="1.1"
   id="svg95"
   inkscape:version="0.92.3 (2405546, 2018-03-11)"
   sodipodi:docname="com.slack.svg">
  <defs
     id="defs89" />
  <sodipodi:namedview
     id="base"
     pagecolor="#ffffff"
     bordercolor="#666666"
     borderopacity="1.0"
     inkscape:pageopacity="0.0"
     inkscape:pageshadow="2"
     inkscape:zoom="0.98994949"
     inkscape:cx="287.86797"
     inkscape:cy="129.37765"
     inkscape:document-units="mm"
     inkscape:current-layer="g111"
     showgrid="false"
     units="px"
     inkscape:window-width="960"
     inkscape:window-height="1017"
     inkscape:window-x="960"
     inkscape:window-y="30"
     inkscape:window-maximized="0" />
  <metadata
     id="metadata92">
    <rdf:RDF>
      <cc:Work
         rdf:about="">
        <dc:format>image/svg+xml</dc:format>
        <dc:type
           rdf:resource="http://purl.org/dc/dcmitype/StillImage" />
        <dc:title></dc:title>
      </cc:Work>
    </rdf:RDF>
  </metadata>
  <g
     inkscape:label="Ebene 1"
     inkscape:groupmode="layer"
     id="layer1"
     transform="translate(0,-263.13332)">
    <g
       id="g111"
       transform="matrix(0.26458333,0,0,0.26458333,0.69532163,271.40551)"
       style="fill:none;fill-rule:evenodd">
      <g
         id="g101"
         style="fill:#000000" />
      <g
         id="g135"
         transform="matrix(1.0182975,0,0,1.0182975,-3.3407926,-31.825031)">
        <path
           style="fill:#e01e5a"
           inkscape:connector-curvature="0"
           d="M 27.2,80 C 27.2,87.3 21.3,93.2 14,93.2 6.7,93.2 0.8,87.3 0.8,80 0.8,72.7 6.7,66.8 14,66.8 h 13.2 z m 6.6,0 c 0,-7.3 5.9,-13.2 13.2,-13.2 7.3,0 13.2,5.9 13.2,13.2 v 33 c 0,7.3 -5.9,13.2 -13.2,13.2 -7.3,0 -13.2,-5.9 -13.2,-13.2 z"
           id="path103" />
        <path
           style="fill:#36c5f0"
           inkscape:connector-curvature="0"
           d="M 47,27 C 39.7,27 33.8,21.1 33.8,13.8 33.8,6.5 39.7,0.6 47,0.6 c 7.3,0 13.2,5.9 13.2,13.2 V 27 Z m 0,6.7 c 7.3,0 13.2,5.9 13.2,13.2 0,7.3 -5.9,13.2 -13.2,13.2 H 13.9 C 6.6,60.1 0.7,54.2 0.7,46.9 0.7,39.6 6.6,33.7 13.9,33.7 Z"
           id="path105" />
        <path
           style="fill:#2eb67d"
           inkscape:connector-curvature="0"
           d="m 99.9,46.9 c 0,-7.3 5.9,-13.2 13.2,-13.2 7.3,0 13.2,5.9 13.2,13.2 0,7.3 -5.9,13.2 -13.2,13.2 H 99.9 Z m -6.6,0 c 0,7.3 -5.9,13.2 -13.2,13.2 -7.3,0 -13.2,-5.9 -13.2,-13.2 V 13.8 c 0,-7.3 5.9,-13.2 13.2,-13.2 7.3,0 13.2,5.9 13.2,13.2 z"
           id="path107" />
        <path
           style="fill:#ecb22e"
           inkscape:connector-curvature="0"
           d="m 80.1,99.8 c 7.3,0 13.2,5.9 13.2,13.2 0,7.3 -5.9,13.2 -13.2,13.2 -7.3,0 -13.2,-5.9 -13.2,-13.2 V 99.8 Z m 0,-6.6 c -7.3,0 -13.2,-5.9 -13.2,-13.2 0,-7.3 5.9,-13.2 13.2,-13.2 h 33.1 c 7.3,0 13.2,5.9 13.2,13.2 0,7.3 -5.9,13.2 -13.2,13.2 z"
           id="path109" />
      </g>
    </g>
  </g>
</svg>
